<mxfile host="app.diagrams.net" modified="2023-12-01T09:18:23.653Z" agent="Mozilla/5.0 (X11; Linux x86_64) AppleWebKit/537.36 (KHTML, like Gecko) Chrome/114.0.0.0 Safari/537.36" version="22.1.5" etag="Z1zngVMAmI5G7mFSrSkb" type="github">
  <diagram name="Page-1" id="on1YoGWGGCBxw0oyXFnt">
    <mxGraphModel>
      <root>
        <mxCell id="0" />
        <mxCell id="1" parent="0" />
      </root>
    </mxGraphModel>
  </diagram>
</mxfile>
